<svg width="72" height="96" viewBox="0 0 72 96" fill="none" xmlns="http://www.w3.org/2000/svg">
<path d="M72 29.3V89.6C72 91.84 72 92.96 71.56 93.82C71.18 94.56 70.56 95.18 69.82 95.56C68.96 96 67.84 96 65.6 96H6.4C4.16 96 3.04 96 2.18 95.56C1.44 95.18 0.82 94.56 0.44 93.82C0 92.96 0 91.84 0 89.6V6.4C0 4.16 0 3.04 0.44 2.18C0.82 1.44 1.44 0.82 2.18 0.44C3.04 0 4.16 0 6.4 0H42.7C44.66 0 45.64 0 46.56 0.22C47.06 0.34 47.54 0.5 48 0.72V17.6C48 19.84 48 20.96 48.44 21.82C48.82 22.56 49.44 23.18 50.18 23.56C51.04 24 52.16 24 54.4 24H71.28C71.5 24.46 71.66 24.94 71.78 25.44C72 26.36 72 27.34 72 29.3Z" fill="#D3D6FD"/>
<path d="M68.26 20.26C69.64 21.64 70.32 22.32 70.82 23.14C71 23.42 71.14 23.7 71.28 24H54.4C52.16 24 51.04 24 50.18 23.56C49.44 23.18 48.82 22.56 48.44 21.82C48 20.96 48 19.84 48 17.6V0.719971C48.3 0.859971 48.58 0.999971 48.86 1.17997C49.68 1.67997 50.36 2.35997 51.74 3.73997L68.26 20.26Z" fill="#939BF9"/>
<path fill-rule="evenodd" clip-rule="evenodd" d="M22.06 66.96H30.48L31.98 72H37.82L30.12 48H22.48L14.86 72H20.58L22.06 66.96ZM26.2 52.72L29.22 62.74H23.28L26.2 52.72ZM44.54 64.64H56.42H56.44V62.38C56.44 60.62 56.12 59.12 55.48 57.9C54.84 56.68 53.92 55.74 52.68 55.12C51.44 54.5 49.98 54.18 48.26 54.18C46.42 54.18 44.8 54.56 43.42 55.32C42.04 56.08 40.98 57.14 40.24 58.52C39.5 59.9 39.14 61.46 39.14 63.24C39.14 65.12 39.54 66.76 40.36 68.16C41.18 69.56 42.34 70.62 43.84 71.38C45.34 72.14 47.1 72.52 49.14 72.52C50.52 72.52 51.78 72.34 52.92 72C54.06 71.66 54.98 71.22 55.7 70.68V66.76C54.98 67.24 54.16 67.62 53.24 67.9C52.32 68.18 51.38 68.32 50.4 68.32C48.74 68.32 47.42 68 46.44 67.36C45.46 66.72 44.82 65.82 44.54 64.64ZM44.6 61.6C44.76 60.54 45.14 59.72 45.78 59.12C46.42 58.54 47.28 58.24 48.34 58.24C49.4 58.24 50.22 58.52 50.82 59.1C51.42 59.68 51.74 60.5 51.78 61.6H44.6Z" fill="#5865F2"/>
</svg>
