<svg width="26" height="26" viewBox="0 0 26 26" fill="none" xmlns="http://www.w3.org/2000/svg">
    <path fill-rule="evenodd" clip-rule="evenodd" d="M9 1C9 0.447715 8.55228 0 8 0H3C1.34315 0 0 1.34315 0 3V8C0 8.55228 0.447715 9 1 9H2C2.55228 9 3 8.55228 3 8V4C3 3.44772 3.44772 3 4 3H8C8.55228 3 9 2.55228 9 2V1ZM17 3C16.4477 3 16 2.55228 16 2V1C16 0.447715 16.4477 0 17 0H23C24.6569 0 26 1.34315 26 3V8C26 8.55228 25.5523 9 25 9H24C23.4477 9 23 8.55228 23 8V4C23 3.44772 22.5523 3 22 3H17ZM16 24C16 23.4477 16.4477 23 17 23H22C22.5523 23 23 22.5523 23 22V17C23 16.4477 23.4477 16 24 16H25C25.5523 16 26 16.4477 26 17V23C26 24.6569 24.6569 26 23 26H17C16.4477 26 16 25.5523 16 25V24ZM2 16C2.55228 16 3 16.4477 3 17V22C3 22.5523 3.44772 23 4 23H8C8.55228 23 9 23.4477 9 24V25C9 25.5523 8.55228 26 8 26H3C1.34315 26 0 24.6569 0 23V17C0 16.4477 0.447715 16 1 16H2Z" fill="white" />
</svg>
